<mxfile host="app.diagrams.net" modified="2023-12-16T21:05:57.590Z" agent="Mozilla/5.0 (Macintosh; Intel Mac OS X 10_15_7) AppleWebKit/537.36 (KHTML, like Gecko) Chrome/120.0.0.0 Safari/537.36" version="22.1.11" etag="O4yBj0al4tANEawA6Pz_" type="github">
  <diagram name="Страница — 1" id="DCO2adIk4ktqc4p3Er-f">
    <mxGraphModel>
      <root>
        <mxCell id="0" />
        <mxCell id="1" parent="0" />
      </root>
    </mxGraphModel>
  </diagram>
</mxfile>
